<svg width="24" height="24" fill="none" xmlns="http://www.w3.org/2000/svg"><path d="M4.876 21h14.248a.75.75 0 00.75-.75V15a.75.75 0 00-.75-.75H4.877a.75.75 0 00-.75.75v5.25c0 .414.335.75.75.75zM8.04 8.67l-.678 3.953a.75.75 0 001.088.79L12 11.549l3.55 1.866a.75.75 0 001.088-.79L15.96 8.67l2.872-2.799a.75.75 0 00-.416-1.28l-3.969-.576L12.673.42a.75.75 0 00-1.346 0L9.553 4.015l-3.97.577a.75.75 0 00-.415 1.279l2.872 2.8z"/><path d="M22.613 20.625l1.287-2.253a.75.75 0 00-.65-1.122h-1.641a.234.234 0 00-.235.234v2.766a2.25 2.25 0 01-2.25 2.25H17.11a.234.234 0 00-.234.234v.516c0 .414.335.75.75.75h5.624a.75.75 0 00.651-1.123l-1.287-2.252zM2.626 20.25v-2.766a.234.234 0 00-.235-.234H.751A.75.75 0 00.1 18.372l1.287 2.253L.1 22.877A.75.75 0 00.75 24h5.625a.75.75 0 00.75-.75v-.516a.234.234 0 00-.234-.234H4.876a2.25 2.25 0 01-2.25-2.25z"/></svg>