<svg width="24" height="24" fill="none" xmlns="http://www.w3.org/2000/svg"><path d="M2.983 17.504L.726 19.76a2.486 2.486 0 000 3.512c.47.469 1.093.727 1.756.727s1.287-.258 1.756-.727l2.257-2.258-3.512-3.511zm10.949-8.607a.868.868 0 001.735 0 .868.868 0 00-1.735 0z"/><path d="M21.301 2.698A9.15 9.15 0 0014.788 0c-2.46 0-4.774.958-6.514 2.698-3.424 3.424-3.583 8.896-.478 12.51l-.803.804-1.259-1.259-1.756 1.756 3.511 3.512 1.757-1.756-1.259-1.259.803-.803a9.142 9.142 0 005.998 2.22c2.46 0 4.773-.959 6.513-2.698a9.151 9.151 0 002.698-6.514 9.15 9.15 0 00-2.698-6.513zm-1.546 11.48a7.002 7.002 0 01-4.967 2.054 7.003 7.003 0 01-4.967-2.054 6.978 6.978 0 01-2.057-4.967c0-1.876.73-3.64 2.057-4.967a7.032 7.032 0 019.934 0 6.978 6.978 0 012.057 4.967c0 1.876-.73 3.64-2.058 4.967z"/><path d="M18.76 5.239a5.6 5.6 0 00-3.972-1.643 5.6 5.6 0 00-3.973 1.643A5.582 5.582 0 009.17 9.211c0 1.5.584 2.912 1.645 3.973a5.624 5.624 0 007.945 0 5.581 5.581 0 001.645-3.973A5.58 5.58 0 0018.76 5.24zm-.818 4.782a4.987 4.987 0 00-.871-1.027 2.276 2.276 0 01-2.272 2.177 2.277 2.277 0 01-2.27-2.159 5.297 5.297 0 00-.88 1.022l-1.2-.734c.067-.11 1.668-2.677 4.35-2.677 2.77 0 4.296 2.582 4.36 2.692l-1.217.706z"/></svg>