<svg width="24" height="24" fill="none" xmlns="http://www.w3.org/2000/svg"><path d="M12 7.428A4.578 4.578 0 007.427 12 4.578 4.578 0 0012 16.573 4.578 4.578 0 0016.573 12 4.578 4.578 0 0012 7.428zm2.715 3.711l-3.276 3.276a.702.702 0 01-.996 0L9.19 13.163a.704.704 0 11.996-.995l.754.754 2.778-2.778a.704.704 0 11.996.995z"/><path d="M22.195 6.512l-.001-.019c-.01-.23-.017-.474-.022-.746a2.544 2.544 0 00-2.395-2.492c-2.759-.154-4.894-1.053-6.718-2.831l-.015-.015a1.536 1.536 0 00-2.088 0l-.015.015C9.117 2.202 6.982 3.1 4.223 3.256a2.543 2.543 0 00-2.395 2.492c-.004.27-.011.513-.022.745v.044c-.054 2.813-.121 6.315 1.05 9.494.645 1.748 1.62 3.267 2.9 4.516 1.457 1.422 3.367 2.552 5.674 3.356A1.764 1.764 0 0012 24a1.727 1.727 0 00.571-.097c2.305-.806 4.212-1.936 5.668-3.358 1.28-1.25 2.255-2.77 2.9-4.518 1.176-3.188 1.11-6.696 1.056-9.515zM12 17.982A5.988 5.988 0 016.019 12a5.988 5.988 0 015.98-5.98A5.988 5.988 0 0117.982 12 5.988 5.988 0 0112 17.982z"/></svg>