<svg width="24" height="24" fill="none" xmlns="http://www.w3.org/2000/svg"><path d="M12 17.131a7.18 7.18 0 01-1.962-.272l1.96 4.269 1.96-4.268a7.176 7.176 0 01-1.958.27zm-9.54 2.711a2.025 2.025 0 01-.238-1.098l.076-1.105-.73-.06a10.151 10.151 0 00-1.564 5.287.703.703 0 00.7.775l7.169-.001c-1.036-.67-4.944-2.929-5.412-3.798zm19.24-2.203l.075 1.104a2.025 2.025 0 01-.993 1.885l-4.656 3.01h7.171a.7.7 0 00.7-.704 10.15 10.15 0 00-1.566-5.355l-.732.06z"/><path d="M11.147 22.63L8.09 15.974a7.235 7.235 0 01-2.992-3.961L.324 14.915c-.531.311-.36 1.12.25 1.17l3.22.266-.172 2.486a.631.631 0 00.318.591l6.357 4.11a.63.63 0 00.915-.791l-.066-.117zm9.228-3.793l-.172-2.486 3.218-.358c.61-.048.8-.86.269-1.17l-4.787-2.809a7.235 7.235 0 01-2.996 3.962L12.85 22.63l-.067.117a.63.63 0 00.915.792l6.357-4.11a.631.631 0 00.319-.592zM12 15.725c3.196 0 5.808-2.612 5.808-5.808V8.594H6.192v1.323c0 3.196 2.612 5.808 5.808 5.808zM4.781 7.206H19.22a.703.703 0 000-1.406h-1.235c-.402-1.655-.71-3.689-1.85-4.828-1.018-1.018-1.75-.525-2.653.082-.426.287-.917.618-1.479.618-.547 0-1.024-.332-1.44-.622C9.663.423 8.93-.088 7.87.972 6.694 2.146 6.347 4.134 5.999 5.8H4.78a.703.703 0 000 1.406z"/></svg>