<svg><path d="M31.357 4.255H17.352v3.913a11.26 11.26 0 016.95 3.273 11.294 11.294 0 012.793 4.58h8.596v2.353h-8.118a11.539 11.539 0 01.017 1.987h8.101v2.352h-8.536a11.15 11.15 0 01-.892 2.152h2.57v2.352h-4.27c-.086.091-.172.182-.261.27a11.26 11.26 0 01-6.95 3.274v1.708H40V12.872h-8.643V4.255z"/><path d="M39.31 10.52l-5.6-5.577v5.577h5.6zM10.74 26.659a9.01 9.01 0 005.539 1.884 9.019 9.019 0 006.42-2.659 9.019 9.019 0 002.658-6.42 9.02 9.02 0 00-2.659-6.419 9.019 9.019 0 00-6.42-2.659 9.019 9.019 0 00-6.419 2.66c-3.26 3.259-3.517 8.4-.774 11.957l-1.163 1.163-.753.064-2.452.205 4.592 4.592.205-2.45.063-.756 1.162-1.162zm.774-11.96a6.694 6.694 0 014.765-1.973c1.8 0 3.492.701 4.764 1.974a6.694 6.694 0 011.974 4.765c0 1.8-.7 3.491-1.974 4.764a6.694 6.694 0 01-4.764 1.974c-1.8 0-3.492-.701-4.765-1.974a6.694 6.694 0 01-1.974-4.764c0-1.8.701-3.492 1.974-4.765zM.964 30.119a3.3 3.3 0 000 4.66c.622.623 1.45.966 2.33.966.88 0 1.708-.343 2.33-.965l2.064-2.064-4.66-4.66-2.064 2.063z"/></svg>