<svg width="40" height="40" fill="none" xmlns="http://www.w3.org/2000/svg"><g clip-path="url(#clip0_59_20)" fill="#5477BB"><path d="M31.144 21.041a12.925 12.925 0 01-.954 6.435v.001l3.086 3.986a.786.786 0 001.136.111 14.083 14.083 0 004.877-9.7.782.782 0 00-.783-.833h-7.362zM23.395.785v9.746a13.031 13.031 0 016.171 5.57h8.96a.783.783 0 00.784-.81C38.991 7.006 32.385.415 24.213.001a.783.783 0 00-.818.784zm-4.993 34.588c-7.133.074-13.028-5.71-13.086-12.844-.058-7.19 5.774-13.057 12.95-13.057V5.65a.785.785 0 00-.82-.785C8.12 5.294.69 12.99.69 22.423c0 9.726 7.967 17.64 17.693 17.577a17.49 17.49 0 009.875-3.113.785.785 0 00.172-1.125l-2.34-3.023a12.887 12.887 0 01-7.687 2.634z"/><path d="M7.67 22.423c0 5.843 4.754 10.596 10.596 10.596 5.843 0 10.597-4.752 10.597-10.596 0-5.843-4.754-10.597-10.597-10.597-5.842 0-10.596 4.754-10.596 10.597zm11.773-7.04v1.123c1.207 0 2.275.513 3.028 1.317a1.178 1.178 0 01-1.717 1.61 1.77 1.77 0 00-1.263-.573h-2.544a1.192 1.192 0 100 2.386h2.64a3.551 3.551 0 013.546 3.547c0 1.827-1.405 3.547-3.69 3.547v1.122a1.177 1.177 0 11-2.354 0V28.34c-.829 0-1.646-.09-2.603-.753a1.177 1.177 0 011.342-1.934c.283.197.634.329.983.333h2.775a1.192 1.192 0 100-2.386h-2.639a3.551 3.551 0 01-3.547-3.547c0-1.833 1.41-3.547 3.69-3.547v-1.123a1.177 1.177 0 012.353 0z"/></g><defs><clipPath id="clip0_59_20"><path fill="#fff" d="M0 0h40v40H0z"/></clipPath></defs></svg>