<svg width="40" height="40" fill="none" xmlns="http://www.w3.org/2000/svg"><path d="M30.43 6.83c0-.939-.366-1.822-1.03-2.486L26.088 1.03A3.594 3.594 0 0023.578 0h-.201v7.031h7.054V6.83z" fill="#5477BB"/><path d="M21.401 24.183a4.704 4.704 0 011.126-1.83l7.935-7.902V9.375h-8.234c-.648 0-1.134-.524-1.134-1.172V0H3.516A3.52 3.52 0 000 3.516v32.968A3.52 3.52 0 003.516 40h23.4c1.938 0 3.546-1.577 3.546-3.516v-8.746l-1.288 1.257a4.66 4.66 0 01-1.822 1.124l-3.726 1.244-.568.03a2.94 2.94 0 01-2.378-1.22 2.939 2.939 0 01-.398-2.64l1.12-3.35zM5.86 21.093h11.68a1.171 1.171 0 110 2.345H5.86a1.171 1.171 0 110-2.344zm-1.171-3.515a1.17 1.17 0 011.171-1.172h11.68a1.171 1.171 0 110 2.344H5.86a1.171 1.171 0 01-1.173-1.172zm0 9.375a1.17 1.17 0 011.171-1.172h11.68a1.171 1.171 0 110 2.344H5.86a1.171 1.171 0 01-1.173-1.172zm17.54 5.86a1.171 1.171 0 110 2.343h-7.032a1.171 1.171 0 110-2.343h7.032zm-16.37-18.75a1.171 1.171 0 110-2.344h16.369a1.171 1.171 0 110 2.344H5.859z" fill="#5477BB"/><path d="M23.524 25.22l-1.02 3.058a.586.586 0 00.742.74l3.057-1.02-2.779-2.779zm9.102-9.65l-7.718 7.719 3.328 3.328 7.718-7.718-3.328-3.328zm6.685-3.36c-.412-.415-1.018-.651-1.661-.651-.644 0-1.25.237-1.664.652l-1.703 1.703 3.328 3.328 1.703-1.703a2.359 2.359 0 00-.003-3.33zm.003 3.329l.007-.007-.007.007zm.006-.008l.01-.01-.01.01z" fill="#5477BB"/><path d="M39.331 15.521c.008-.007.008-.007 0 0z" fill="#5477BB"/></svg>