<svg width="40" height="40" fill="none" xmlns="http://www.w3.org/2000/svg"><path d="M14.375 9.688h11.25a.938.938 0 00.938-.938V4.375a.938.938 0 00-.938-.937h-1.672a4.063 4.063 0 00-7.906 0h-1.672a.938.938 0 00-.938.937V8.75a.938.938 0 00.938.938zM20 3.438a.937.937 0 110 1.874.937.937 0 010-1.874zm-6.875 13.75h3.75a.938.938 0 00.938-.938V12.5a.938.938 0 00-.938-.938h-3.75a.938.938 0 00-.938.938v3.75a.938.938 0 00.938.938zm.938-3.75h1.874v1.874h-1.874v-1.874zm-.938 11.875h3.75a.938.938 0 00.938-.938v-3.75a.938.938 0 00-.938-.938h-3.75a.938.938 0 00-.938.938v3.75a.938.938 0 00.938.938zm.938-3.75h1.874v1.875h-1.874v-1.875zm6.562-8.125a.938.938 0 000 1.874h5.625a.938.938 0 000-1.874h-5.625zm5.625 8.125h-5.625a.938.938 0 000 1.875h5.625a.938.938 0 000-1.875zm5.313-17.188V25a7.764 7.764 0 013.75.96V5.313a1.877 1.877 0 00-1.876-1.875h-2.812a.937.937 0 01.938.938z" fill="#5477BB"/><path d="M9.375 32.813a.938.938 0 01-.938-.938v-27.5a.937.937 0 01.938-.938H6.641a1.877 1.877 0 00-1.875 1.876v29.375a1.877 1.877 0 001.875 1.874h18.07a7.764 7.764 0 01-.961-3.75H9.375zm22.188-6.875a6.875 6.875 0 106.875 6.875 6.883 6.883 0 00-6.876-6.876zM35.35 31.6l-3.75 3.75a.937.937 0 01-1.325 0L28.4 33.475a.938.938 0 011.325-1.325l1.212 1.212 3.088-3.087A.938.938 0 0135.35 31.6z" fill="#5477BB"/></svg>