<svg version="1.0" xmlns="http://www.w3.org/2000/svg" width="933.333" height="933.333" viewBox="0 0 700 700"><path d="M53 2.1C27.1 8.9 8.5 27.7 2 53.5c-2 7.9-2 10.7-1.8 299l.3 291 2.7 8c3.8 11.2 9.1 19.7 17.4 27.9 8.2 8.3 16.7 13.6 27.9 17.4l8 2.7h587l8-2.7c11.2-3.8 19.7-9.1 27.9-17.4 8.3-8.2 13.6-16.7 17.4-27.9l2.7-8v-587l-2.7-8c-3.8-11.2-9.1-19.7-17.4-27.9-8.2-8.3-16.7-13.6-27.9-17.4l-8-2.7L352 .3C65.2.1 60.4.1 53 2.1zm356 102.2c0 .7-18 110.3-40 243.5S329 590.4 329 591c0 .6-7.5 1-20.6 1h-20.7l.6-3.7c.4-2.1 18.5-112.1 40.4-244.6L368.4 103h20.3c16 0 20.3.3 20.3 1.3zM257.3 271.1c-.5.4-35.7 20.5-78.3 44.7-42.6 24.2-77.6 44.4-77.7 44.8-.2.5 35 20.7 78.2 44.9l78.4 44 .1 54.2c0 29.9-.3 54.3-.6 54.3s-56.5-33.8-125-75.2L8 407.7l.2-46.6.3-46.6L133 239l124.5-75.5.3 53.4c.1 29.4-.1 53.8-.5 54.2zm416 32.3l16.7 10.1v93l-124.4 75.7c-68.4 41.7-124.7 75.8-125 75.8-.3 0-.6-24.2-.6-53.8v-53.9l78.3-44.2c43-24.4 78.5-44.6 78.9-44.9.4-.4-34.9-20.7-78.3-45.2L440 271.5V163.1l108.3 65.1c59.5 35.8 115.7 69.7 125 75.2z"/></svg>