<svg width="17" height="17" fill="none" xmlns="http://www.w3.org/2000/svg"><path d="M12.662 16.505h-.023a12.775 12.775 0 01-8.56-3.582A12.761 12.761 0 01.496 4.367c-.005-.448.171-.88.488-1.196L3.246.91a.833.833 0 011.178 0l3.334 3.333a.833.833 0 010 1.179L6.428 6.75a6.25 6.25 0 001.328 2.493 6.238 6.238 0 002.49 1.33l1.333-1.329a.833.833 0 011.178 0l3.334 3.334a.833.833 0 010 1.178l-2.262 2.26a1.647 1.647 0 01-1.167.489zM3.833 2.679H3.83L2.163 4.35a11.038 11.038 0 003.093 7.395 11.043 11.043 0 007.394 3.094l1.672-1.671-2.16-2.155-1.077 1.077a.823.823 0 01-.758.226 8.5 8.5 0 01-3.75-1.893 8.5 8.5 0 01-1.892-3.75.833.833 0 01.228-.761l1.076-1.078L3.833 2.68z" fill="#303B40"/></svg>